<svg viewBox="0 0 512 512" xmlns="http://www.w3.org/2000/svg">
  <rect width="512" height="512" rx="48" fill="#500"/>
  <path d="M449.04 300.04C453.12 300.04 455.16 305.56 455.16 316.6C455.16 322.6 452.64 329.92 447.6 338.56C442.56 346.96 435.96 354.76 427.8 361.96C419.88 368.92 411 374.68 401.16 379.24C391.32 383.8 380.88 386.08 369.84 386.08C359.04 386.08 350.52 382.6 344.28 375.64C338.28 368.44 335.28 360.52 335.28 351.88C335.28 343 336.72 333.04 339.6 322C342.48 310.96 345.6 299.44 348.96 287.44C358.08 255.52 362.76 233.08 363 220.12C363 214.6 362.28 210.4 360.84 207.52C359.4 204.4 356.64 202.84 352.56 202.84C345.36 202.84 337.68 207.16 329.52 215.8C321.36 224.44 313.68 235.48 306.48 248.92C289.92 279.64 281.16 309.64 280.2 338.92C280.68 342.28 281.16 345.64 281.64 349C282.12 352.36 282.36 355.96 282.36 359.8C282.36 367.48 278.52 374.56 270.84 381.04C263.4 387.28 255 390.4 245.64 390.4C240.12 390.4 236.04 387.76 233.4 382.48C230.76 376.96 229.44 370.24 229.44 362.32C229.44 354.4 231.24 343.6 234.84 329.92C238.44 316.24 242.4 301.72 246.72 286.36C258.24 245.8 264.12 215.56 264.36 195.64C264.36 185.56 263.04 177.64 260.4 171.88C258 166.12 253.2 163.24 246 163.24C233.04 163.24 220.2 172.48 207.48 190.96C194.76 209.44 183.36 238.12 173.28 277C170.64 287.08 168.6 295.84 167.16 303.28L166.8 310.12C171.36 332.2 173.64 346.6 173.64 353.32C173.64 367.24 168.72 376.6 158.88 381.4C154.32 383.56 149.88 385.6 145.56 387.52C141.48 389.44 137.04 390.4 132.24 390.4C120.24 390.4 114.24 379 114.24 356.2C114.24 333.16 120.6 288.28 133.32 221.56C137.88 197.56 140.16 184.12 140.16 181.24C140.16 161.8 135.24 152.08 125.4 152.08C122.04 152.08 118.92 153.04 116.04 154.96C113.4 156.88 110.64 158.92 107.76 161.08C105.12 163.24 102.36 165.28 99.48 167.2C96.6 169.12 93.24 170.08 89.4 170.08C85.8 170.08 84 166.84 84 160.36C84 147.16 90.12 136.36 102.36 127.96C114.12 119.32 128.4 115 145.2 115C166.8 115 179.52 125.08 183.36 145.24C184.32 151.24 185.04 157.6 185.52 164.32C203.28 130.96 225.72 114.28 252.84 114.28C282.36 114.28 299.28 128.44 303.6 156.76C305.04 164.92 305.64 173.68 305.4 183.04V185.92C321 164.32 339.48 153.52 360.84 153.52C391.08 153.52 406.2 171.76 406.2 208.24C406.2 224.08 403.68 242.68 398.64 264.04C393.84 285.16 390.24 300.4 387.84 309.76C385.68 318.88 384.6 325.96 384.6 331C384.6 340.12 387.72 344.68 393.96 344.68C400.44 344.68 415.68 332.2 439.68 307.24C444 302.44 447.12 300.04 449.04 300.04Z" fill="#fff"/>
</svg>
